<?xml version="1.0" encoding="UTF-8"?>
<svg xmlns="http://www.w3.org/2000/svg" xmlns:xlink="http://www.w3.org/1999/xlink" width="20px" height="20px" viewBox="0 0 20 20" version="1.1">
<g id="surface1">
<path style=" stroke:none;fill-rule:nonzero;fill:rgb(0%,0%,0%);fill-opacity:1;" d="M 0 3.75 C 0 3.058594 0.640625 2.5 1.429688 2.5 L 18.570312 2.5 C 19.363281 2.5 20 3.058594 20 3.75 C 20 4.441406 19.363281 5 18.570312 5 L 1.429688 5 C 0.640625 5 0 4.441406 0 3.75 Z M 0 10 C 0 9.308594 0.640625 8.75 1.429688 8.75 L 18.570312 8.75 C 19.363281 8.75 20 9.308594 20 10 C 20 10.691406 19.363281 11.25 18.570312 11.25 L 1.429688 11.25 C 0.640625 11.25 0 10.691406 0 10 Z M 18.570312 17.5 L 1.429688 17.5 C 0.640625 17.5 0 16.941406 0 16.25 C 0 15.558594 0.640625 15 1.429688 15 L 18.570312 15 C 19.363281 15 20 15.558594 20 16.25 C 20 16.941406 19.363281 17.5 18.570312 17.5 Z M 18.570312 17.5 "/>
</g>
</svg>
